<?xml version="1.0" encoding="utf-8"?>
<!-- Generator: Adobe Illustrator 25.0.0, SVG Export Plug-In . SVG Version: 6.00 Build 0)  -->
<svg version="1.1" id="katman_1" xmlns="http://www.w3.org/2000/svg" xmlns:xlink="http://www.w3.org/1999/xlink" x="0px" y="0px"
	 viewBox="0 0 560 400" style="enable-background:new 0 0 560 400;" xml:space="preserve">
<style type="text/css">
	.st0{fill:#0099CC;}
	.st1{fill:#FF9933;}
</style>
<g transform="matrix(.931031 0 0 .931031 93.7937 60.3444)">
	<path class="st0" d="M53.9,247c-41.8-12.7-72.2-51.3-72.2-97c0-46.2,31-85.1,73.5-97.5c4.3-1.3,3.2-4-2.1-4
		C-3.3,48.5-49.2,94-49.2,150S-3.3,251.5,53.1,251.5C58.4,251.5,58.8,248.5,53.9,247 M1.2,173.6c-0.3-2.7-0.5-5.5-0.5-8.2
		c0-44.6,36-80.6,80.6-80.6c42.1,0,54.7,18.8,56.3,17.5c1.8-1.3-15.3-38.6-64.7-38.6c-44.6,0-80.6,36-80.6,80.6
		c0,10.3,1.9,20.1,5.5,29.1C-0.8,177.3,1.5,177.3,1.2,173.6 M34.9,115.6c20.9-9.2,47.3-9.5,73.2-0.3c17.4,6.1,27.5,14.8,28.3,14.3
		c1.4-0.6-10.1-18.8-30.9-26.7c-25.1-9.5-52.1-4.5-71.7,10.9C31.6,115.6,32.4,116.7,34.9,115.6"/>
	<path class="st1" d="M449.2,153.5c0,5.8-4.8,10.6-10.6,10.6c-5.8,0-10.6-4.7-10.6-10.6c0-5.8,4.7-10.6,10.6-10.6
		S449.2,147.6,449.2,153.5 M103.6,212.9l1.3,14.2h22.4l-7.6-82.2H86.4l-42.2,82.2h22.8l7.1-14.2H103.6z M102.5,197H82.1l17.5-35.5
		h0.2L102.5,197z M158.3,191.2h3.4l15.9-21.7h20.7l-22,27.7l13.5,29.9h-22l-8.8-23.3h-3.2l-5,23.3H132l17.4-82.2h18.8L158.3,191.2z
		 M227.8,227.1h18.8l7.6-35.9c4.2-19.8-3.4-22.2-22.7-22.2c-13.5,0-26.5-0.2-30.2,17.7h18.8c1.1-5.1,4.3-6.3,9-6.3
		c8.2,0,7.9,3.4,6.8,8.7l-1.9,9.2h-0.8c-0.6-6.6-9-6.4-14.3-6.4c-13.7,0-21.7,4.3-24.6,18.2c-3.1,14.6,3.9,17.9,17.1,17.9
		c6.6,0,15.4-1.3,18.5-9.2h0.6L227.8,227.1z M222.5,203.3c6.1,0,10.1,0.5,9.2,5.3c-1.3,6-3.9,7.1-11.7,7.1c-2.9,0-8.2,0-6.9-6.3
		C214.2,204.1,217.9,203.3,222.5,203.3 M284.8,169.5l-1.8,8h0.8c3.7-6.8,11.3-8.7,17.7-8.7c8,0,16.1,1.4,15,11.3h0.8
		c2.7-8.2,11.1-11.3,18.3-11.3c13.4,0,19,5.5,16.1,18.8l-8.4,39.4h-18.8l7.1-33.3c1-6,1.9-10.5-5.3-10.5c-7.4,0-9.8,4.8-11.1,11.1
		l-6.9,32.7h-18.8l7.4-34.9c1-5.3,1.3-8.8-5.3-8.8c-7.7,0-10.1,4.2-11.6,11.1l-6.9,32.7h-18.8l12.2-57.6L284.8,169.5z M386.6,227.1
		h18.8l7.7-35.9c4.2-19.8-3.4-22.2-22.7-22.2c-13.5,0-26.5-0.2-30.2,17.7h18.8c1.1-5.1,4.3-6.3,9-6.3c8.2,0,7.9,3.4,6.8,8.7
		l-1.9,9.2h-0.8c-0.6-6.6-9-6.4-14.3-6.4c-13.7,0-21.7,4.3-24.6,18.2c-3.1,14.6,3.9,17.9,17,17.9c6.6,0,15.4-1.3,18.5-9.2h0.6
		L386.6,227.1z M381.5,203.3c6.1,0,10.1,0.5,9.2,5.3c-1.3,6-3.9,7.1-11.7,7.1c-2.9,0-8.2,0-6.9-6.3
		C373.1,204.1,376.8,203.3,381.5,203.3 M432.8,227.1H414l12.1-57.6h19L432.8,227.1z"/>
</g>
</svg>
